<svg width="216" height="83" viewBox="0 0 216 83" xmlns="http://www.w3.org/2000/svg" class="navigation__logo-svg">
    <g fill-rule="nonzero" fill="#fff">
        <path d="M0 42.803h215.87v1H0z"></path>
        <path d="M4.9 63.05h8.71c1.055 0 1.755-.234 1.755-1.11 0-.878-.7-1.311-1.756-1.311H4.9v2.42zm0-5.742h8.598c.9 0 1.422-.333 1.422-1.233 0-.9-.522-1.244-1.422-1.244H4.9v2.477zM.043 51.022H14.02c3.878 0 5.766 1.055 5.766 4.153 0 2.721-.989 3.243-2.344 3.632v.067c2.122.266 2.91 1.4 2.91 3.787 0 3.476-2.055 4.198-4.843 4.198H.044V51.022zM25.43 51.022h17.33v3.676H30.286v2.543h11.82v3.276h-11.82v2.533H43.05v3.81H25.43V51.021zM52.982 58.807h8.02c1.312 0 1.79-.522 1.79-1.655v-.533c0-1.4-.69-1.655-2.223-1.655h-7.587v3.843zm-4.855-7.774H62.79c3.733 0 4.744 1.855 4.744 4.709v1c0 2.12-.478 3.331-2.71 3.898 1.444.255 2.643.9 2.643 3.498v2.688h-4.854V64.96c0-1.666-.49-2.221-1.99-2.221h-7.642v4.109h-4.855V51.022v.01zM72.968 51.022h17.33v3.676H77.824v2.543h11.82v3.276h-11.82v2.533h12.753v3.81H72.968V51.021zM95.653 51.022h7.533l9.132 11.506h.033V51.022h4.866v15.837h-7.532l-9.121-11.506h-.045V66.86h-4.866V51.022zM127.505 63.05h8.71c1.044 0 1.744-.234 1.744-1.11 0-.878-.7-1.311-1.745-1.311h-8.71v2.42zm0-5.742h8.598c.9 0 1.422-.333 1.422-1.233 0-.9-.522-1.244-1.422-1.244h-8.598v2.477zm-4.866-6.286h13.986c3.878 0 5.755 1.055 5.755 4.153 0 2.721-.977 3.243-2.344 3.632v.067c2.133.266 2.91 1.4 2.91 3.787 0 3.476-2.054 4.198-4.832 4.198H122.64V51.022zM148.035 51.022h17.33v3.676H152.89v2.543h11.82v3.276h-11.82v2.533h12.754v3.81h-17.609V51.021zM175.587 58.807h8.032c1.31 0 1.789-.522 1.789-1.655v-.533c0-1.4-.7-1.655-2.222-1.655h-7.588v3.843h-.011zm-4.866-7.774h14.709c3.744 0 4.755 1.855 4.755 4.709v1c0 2.12-.49 3.331-2.722 3.898 1.455.255 2.655.9 2.655 3.498v2.688h-4.855V64.96c0-1.666-.489-2.221-2-2.221h-7.632v4.109h-4.866V51.022l-.044.01zM195.217 56.575c0-4.631 2.6-5.731 6.977-5.731h7.31c5.555 0 6.288 1.988 6.288 5.076v.466h-4.81c0-1.577-.9-1.777-2.455-1.777h-5.266c-2.456 0-3.089.589-3.089 3.332v1.966c0 2.71.633 3.332 3.089 3.332h5.188c1.266 0 2.533-.19 2.533-1.722v-.466h-6.044v-3.332h10.899v4.553c0 4.543-2.356 4.765-7.833 4.765h-5.843c-4.377 0-6.977-1.11-6.977-5.731v-4.731h.033z"></path>
        <path d="M111.196 18.747l-1.378-1.155.011 1.588 1.367 1.133v-1.566zM113.218 19.514a7.396 7.396 0 00-1.367-3v1.867c.475.345.931.716 1.367 1.11v.023zM111.185 18.08v-2.365c-1.59.433-1.367 1.233-1.367 1.233l1.367 1.11v.023zM109.218 17.437a1.322 1.322 0 00-.2-.211c-.366-.29-1.11.31-1.11.31l1.366 1.111v-1.21h-.056zM113.34 20.291c-1.011-.766-1.533-1.11-1.533-1.11v1.11c.51.25.985.567 1.41.944.345 0 .356-.3.123-.922v-.022zM109.885 21.546c0 .489 1.266 1.31 1.266 1.11v-1.61l-1.277-1.11v1.588l.01.022zM109.207 19.691l-1.144-.966 1.144 2.532v-1.566z"></path>
        <path d="M111.385 27.41a.777.777 0 00.122.622c.265.293.65.449 1.044.422.075.1.121.22.133.344h-1.31c-.407.259-.71.652-.856 1.11-.062.295-.21.566-.422.778a.533.533 0 00-.211.156 2.22 2.22 0 01-.067-1.21c.244-.367.244-.445.189-.545l-.067-.122h-.133a.278.278 0 00-.2.1c-.088.11-.156.233-.2.366-.322.467-.578.656-.678.678-.22.008-.436.05-.644.122.11-.47.295-.92.544-1.333a.367.367 0 01.234-.166H109.274c.177 0 .244-.078.244-.234a.233.233 0 00-.244-.222h-.067a3.612 3.612 0 00-.411 0l-.667.056c.101-.158.225-.3.367-.422.23-.076.47-.124.711-.145.317-.01.63-.078.922-.2.145-.088 1.467-.888 1.9-4.142a3.212 3.212 0 011.11 0l-1.766 4.01.012-.023zm.622-6.23l-.3-.1v.31c-.078 4.787-1.8 5.765-1.811 5.776-.243.07-.493.119-.745.144-.314.009-.624.08-.91.211-.303.278-.562.6-.767.955l-.244.411.477-.067h.467a3.975 3.975 0 00-.567 1.889l.1.255.234-.133c.236-.119.492-.194.755-.222a1 1 0 00.567-.311c.048.382.15.755.3 1.11l.3.644.133-.7s0-.121.1-.133c.444-.055.722-.821.8-1.11.116-.333.32-.628.589-.855h1.733v-.245c-.078-.833-.378-1.01-.611-1.01-.423 0-.6-.134-.667-.234a.3.3 0 01-.067-.222l1.889-4.264c.411-1.333-1.61-2.066-1.7-2.1h-.055zM104.874 27.654c.7-3.543.167-4.153.167-4.153.171-1.26.171-2.538 0-3.799a15.433 15.433 0 010-2.743s-.1-.166-.333.111a5.078 5.078 0 00-2.444.389 2.1 2.1 0 01-.723.055.422.422 0 00.256.656c.22.07.436.155.644.255l-.444.555a.355.355 0 00.311.223c.222 0 .367.155.1.588a2.622 2.622 0 01-1.111.866c-.3.103-.617.148-.933.134a.189.189 0 01-.233 0v-.567h.933l-.711-1.677h.466l-.61-1.466h.377l-.855-1.788-1.111 1.833h.522l-.6 1.466h.478l-.834 1.677h1.178c.178.577-.3.844-.333 1.01-.034.167.333.567.333.567.032.395.032.793 0 1.188-.078.233-.433.278-.433.278a.655.655 0 00.455.566v1.044l-.333.345.344.3-.2.277.478.444.467-.444-.178-.278.333-.3-.333-.344V24.1c0-.166 1.355-.555 1.355-.555s.878.733.622 1.522a8.419 8.419 0 01-1.366 1.81c-.889 1.277-.211 1.61-.056 2.088.156.477-.21.733-.533.944a1.11 1.11 0 00-.589.844h2.222a4.619 4.619 0 000-1.688 1.344 1.344 0 011.111-1.477c.146.316.317.62.511.91.264.365.436.788.5 1.233a1.11 1.11 0 01-.566.5c-.656.233-.445.51-.445.51h.733c2.222.123 1.856-.91 1.856-.91a2.942 2.942 0 01-.5-2.154l.055-.023zM105.952 3.11h-3.877l.477 1.843 3.4-1.843zM106.43 0c-.278 0-4.244 2.577-4.244 2.577h8.31A33.886 33.886 0 00106.374.01L106.43 0z"></path>
        <path d="M115.762 24.967c-.32.122-.607.32-.834.577-.177-2.221 0-4.609 1.511-5.409l2.889-1.92.089 3.72a11.598 11.598 0 01-3.655 3.032zm2.566 2.22l-.855 1.5.81 2.221a10.122 10.122 0 01-2.677-1.354 27.136 27.136 0 01-.566-3c0-.313.133-.611.366-.821a5.822 5.822 0 002.922 1.466v-.011zm-11.72 7.153V16.482c.444-.211 1.788-.811 3.821-1.944l5.122.067.066 5.553c-1.355 1.355-1.322 4.198-1.033 6.43a.81.81 0 000 .244 29.91 29.91 0 00.478 2.533s-3.855 4.92-8.432 4.92l-.023.055zm-8.777-4.742l-.167-.244c.367-1.522 1.544-7.075-.533-9.152l.067-5.553 5.132-.067c2.222 1.233 3.533 1.844 3.855 1.988v17.77h-.066c-4.078 0-7.544-3.854-8.288-4.742zm-2.555-.91l-.845-1.5a5.478 5.478 0 003.044-1.61l.167-.2-.233-.134a12.675 12.675 0 01-4.078-3.332l.09-3.72 2.877 1.91c2.777 1.488 1.044 8.585.833 9.396a9.8 9.8 0 01-2.666 1.344l.81-2.221v.066zm1.01-9.108l-1.844-1.222c.89-.91 1.522-1.043 1.867-1.01v2.221l-.022.011zm3.489-6.508c.367.233.733.444 1.111.644l-4.5.078v3.12a2.933 2.933 0 00-2.221 1.222l-.634-.422.067-2.743c1.833-2.82 5.877-1.988 6.277-1.899h-.1zm-5.644-2.932c.332-.37.705-.702 1.111-.989a9.78 9.78 0 007.422.867l.188.744-3.066 1.466-2.933-.111c-.744-.222-2.555-.955-2.755-1.977h.033zm5.433-4.62l-.855 1.11.488 1.333c-3.088-.888-4.11.71-4.155.778-.312.224-.612.465-.9.721V6.497a4.234 4.234 0 015.455-1.01l-.033.033zm6.821-1.5l4.044 2.144v.255l-3.977-1.754-4.088 1.877v-.167l4.121-2.355h-.1zm6.577 6.364a8.523 8.523 0 004.577-1.233c.41.284.782.616 1.111.989-.2 1.022-2 1.755-2.755 1.977l-2.933.11-3.077-1.52c0-.19.077-.445.144-.745.96.258 1.95.388 2.944.389l-.01.033zm.7-2.31l.478-1.333-.856-1.11a4.234 4.234 0 015.422.966v2.888c-.33-.306-.68-.592-1.045-.856-.344-.4-1.488-1.343-4.032-.621l.033.066zm-9.754-.844a4.265 4.265 0 002.044 2.732v-3.91l-.144.056-3.333 1.111v-.222l3.977-1.833 3.866 1.71c0 .09 0 .19-.078.3l-1.333-.433-2.055-.666V9.94a4.265 4.265 0 002.044-2.721l1.244.41c-.277 1.178-.61 2.644-.689 3.21a7.254 7.254 0 00-3.066 2.233 7.532 7.532 0 00-3.022-2.221l-.777-3.166 1.322-.433V7.23zm2.466 8.885a59.998 59.998 0 01-6.399-3.443l3.077-1.466h.067a6.91 6.91 0 012.755 1.966c-.466.466-.378 1.777.567 1.766.944-.011 1.033-1.31.466-1.744a6.543 6.543 0 012.789-1.988h.078l3.055 1.455a58.886 58.886 0 01-6.4 3.443l-.055.011zm10.099 3.487v-2.22c.344 0 .988.1 1.866 1.01l-1.833 1.221-.033-.01zm2.788-4.63v2.742l-.622.422a2.955 2.955 0 00-2.222-1.221v-3.121l-4.444-.078 1.111-.644c.4-.089 4.444-.933 6.277 1.9h-.1zm.445-.079v-.122a5.066 5.066 0 00-3.578-2.221c.478-.144 3.067-1.01 3.067-2.577V6.408c-2.578-3.332-6.288-1.11-6.322-1.044l-.222.134 1.022 1.31-.71 1.977.455-.156c2.221-.777 3.332-.2 3.81.178a9.635 9.635 0 01-7.077.722c.234-1.044.556-2.421.811-3.454v-.167l-4.577-2.432-4.632 2.655.855 3.42a9.446 9.446 0 01-7.021-.777c.366-.356 1.477-1.11 3.91-.278l.456.156-.722-1.977 1.022-1.31-.211-.134S96.298 3.01 93.72 6.286V9.94c0 1.544 2.5 2.41 3.033 2.577a5.066 5.066 0 00-3.621 2.22v.056l-.167 7.253v.055s.789 1.41 4.022 3.332a5.556 5.556 0 01-2.889 1.322h-.322l1.11 1.866-1.032 2.832.41-.09a10.133 10.133 0 002.99-1.365c.732.91 4.443 5.097 8.965 5.097h.533c4.555 0 8.232-4.187 8.976-5.097a10 10 0 002.989 1.366l.4.089-1.033-2.832 1.11-1.866h-.322a5.556 5.556 0 01-2.888-1.322c3.244-1.955 4-3.332 4.033-3.332v-.055l-.167-7.186-.144.033z"></path>
        <path d="M110.14 4.953l.478-1.843h-3.866l3.388 1.843zM37.795 78.687a2.1 2.1 0 01-1.444.411H35.24v2.699h-.956V74.91h1.844a2.745 2.745 0 011.633.322c.585.353.933.995.911 1.677a2.021 2.021 0 01-.877 1.777zm-.567-2.643a1.489 1.489 0 00-1.11-.344h-.9v2.62h1.11c.378.051.756-.096 1-.388a1.4 1.4 0 00.289-.91 1.266 1.266 0 00-.389-.978zM45.194 81.797l-.611-1.944h-2.4l-.6 1.944h-1l2.222-6.897h1.2l2.222 6.897h-1.033zm-1.756-5.93c-.1.388-.833 2.853-.955 3.187h1.855c-.089-.322-.81-2.788-.9-3.188zM52.204 81.797c-.2-.389-.289-.544-.567-1.01a9.085 9.085 0 00-1.188-1.722.778.778 0 00-.623-.311v3.043h-.955V74.91h1.922a2.222 2.222 0 011.633.5c.396.366.618.882.611 1.421a1.743 1.743 0 01-1.844 1.888c.234.18.437.398.6.645.144.188.355.488.589.844.233.355.855 1.377 1 1.588h-1.178zm-.822-5.964a2.278 2.278 0 00-.833-.133h-.723v2.399h.667c.427.05.856-.065 1.2-.323.228-.256.347-.59.333-.932a1.033 1.033 0 00-.644-1.011zM60.058 75.71H58.27v6.087h-.956V75.71h-1.788v-.8h4.632zM66.113 81.797l-1.777-3.654a17.945 17.945 0 01-.834-1.888h-.066c0 .589.077 1.277.077 1.91v3.62h-.955V74.9h1.11l1.912 3.798c.266.536.496 1.089.689 1.655 0-.2-.1-1.288-.1-2.055v-3.331h.933v6.885l-.989-.055zM70.59 81.797V74.91h3.744l-.133.789h-2.633v2.099h2.222v.8h-2.222v2.365h2.877v.822zM80.689 81.797c-.2-.389-.29-.544-.567-1.01a9.085 9.085 0 00-1.189-1.722.778.778 0 00-.622-.311v3.043h-.955V74.91h1.933a2.222 2.222 0 011.622.5c.396.366.618.882.611 1.421a1.743 1.743 0 01-1.844 1.888c.234.18.437.398.6.645.144.188.355.488.589.844.233.355.855 1.377 1 1.588h-1.178zm-.8-5.964a2.39 2.39 0 00-.844-.133h-.723v2.399H79c.423.049.849-.066 1.189-.323.233-.252.353-.59.333-.932a1.044 1.044 0 00-.633-1.011zM86.555 81.93a4.212 4.212 0 01-2.222-.61l.377-.734a3.434 3.434 0 001.845.567c.9 0 1.488-.467 1.488-1.2 0-.733-.366-.955-1.11-1.11l-.756-.245c-1.033-.3-1.622-.8-1.622-1.788a2.043 2.043 0 012.222-1.999 3.656 3.656 0 012.11.655l-.433.678a2.89 2.89 0 00-1.633-.544c-.777 0-1.255.4-1.255 1.044s.278.766 1.022.988l.811.244c.948.164 1.65.972 1.678 1.933a2.31 2.31 0 01-2.522 2.121zM95.809 81.797v-3.265H93.22v3.265h-.944V74.91h.944v2.832h2.633v-2.832h.978v6.886zM100.23 81.797V74.91h.978v6.886zM108.207 78.687c-.415.31-.929.456-1.444.411h-1.111v2.699h-.955V74.91h1.855a2.79 2.79 0 011.644.322c.585.353.933.995.911 1.677a2.021 2.021 0 01-.9 1.777zm-.544-2.643a1.511 1.511 0 00-1.111-.344h-.9v2.62h1.11c.375.047.747-.1.99-.388a1.4 1.4 0 00.289-.91 1.255 1.255 0 00-.378-.978zM117.717 81.93a4.212 4.212 0 01-2.222-.61l.378-.734a3.434 3.434 0 001.866.567c.9 0 1.489-.467 1.489-1.2 0-.733-.367-.955-1.111-1.11l-.722-.211c-1.033-.3-1.622-.8-1.622-1.788a2.043 2.043 0 012.222-2 3.656 3.656 0 012.11.656l-.433.677a2.89 2.89 0 00-1.633-.544c-.778 0-1.255.4-1.255 1.044s.278.766 1.022.988l.81.245c.949.163 1.65.971 1.678 1.932a2.31 2.31 0 01-2.577 2.088zM123.416 81.797V74.91h.978v6.886zM131.404 81.797l-1.81-3.654a17.945 17.945 0 01-.834-1.888h-.067c0 .589.067 1.277.078 1.91v3.62h-.967V74.9h1.111l1.922 3.798c.261.538.491 1.09.69 1.655 0-.2-.1-1.288-.1-2.055v-3.331h.932v6.885l-.955-.055zM138.47 81.93a2.611 2.611 0 01-2.133-1.022 3.953 3.953 0 01-.756-2.465 4.441 4.441 0 01.456-2.044 2.777 2.777 0 012.477-1.588 2.722 2.722 0 011.689.544l-.467.633a1.967 1.967 0 00-1.222-.4 1.644 1.644 0 00-1.533.989 4.064 4.064 0 00-.322 1.844 3.997 3.997 0 00.244 1.621c.272.69.948 1.134 1.689 1.11.46.016.911-.138 1.266-.432l.478.633a3.167 3.167 0 01-1.866.577zM143.336 81.797V74.91h3.744l-.123.789h-2.633v2.099h2.222v.8h-2.222v2.365h2.878v.822zM154.645 81.797v-.744h1.111v-4.676a6.2 6.2 0 01-.71.433 8.545 8.545 0 01-.812.345l-.211-.5 2-1.389h.689v5.82h.944v.744l-3.01-.033zM164.177 81.752c-.52.251-1.089.384-1.666.39a2.511 2.511 0 01-.756-.09l-.177-.7c.249.104.519.15.788.134a1.889 1.889 0 002.089-1.722c0-.844-.6-1.232-1.4-1.232a3.512 3.512 0 00-1.3.233l.345-3.499h3.077l-.144.8h-2.089l-.156 1.788c.208-.015.416-.015.623 0a1.889 1.889 0 012.022 1.855 2.31 2.31 0 01-1.256 2.043zM171.643 80.875a5.077 5.077 0 01-1.589 1.11 3.178 3.178 0 01-1.11.345l-.479-.555c.309-.043.608-.133.89-.267a4.599 4.599 0 002.121-1.8c.105-.163.19-.338.256-.521a2.056 2.056 0 01-3.178-1.777 2.22 2.22 0 012.3-2.277 2.222 2.222 0 012.222 2.5 4.753 4.753 0 01-1.433 3.242zm-.833-5.042c-.734 0-1.222.622-1.222 1.544 0 .921.444 1.399 1.11 1.399a1.722 1.722 0 001.19-.5c.11-.25.18-.516.21-.788 0-1-.544-1.655-1.288-1.655zM178.053 81.93c-1.722 0-2.289-2.099-2.289-3.487 0-1.888 1.034-3.332 2.311-3.332 1.767 0 2.322 1.977 2.322 3.398 0 2.066-.944 3.421-2.344 3.421zm1.111-5.02c-.211-.744-.611-1.11-1.111-1.11s-.744.31-.989.844a4.674 4.674 0 00-.289 1.799 6.184 6.184 0 00.178 1.644c.222.744.633 1.11 1.111 1.11s.833-.366 1.111-.955a5.263 5.263 0 00.233-1.766 5.118 5.118 0 00-.222-1.544l-.022-.022z"></path>
    </g>
</svg>
