<?xml version="1.0" encoding="utf-8"?>
<svg version="1.1" id="layer" xmlns="http://www.w3.org/2000/svg" xmlns:xlink="http://www.w3.org/1999/xlink" x="0px"
     y="0px"
     viewBox="0 0 652 652" style="enable-background:new 0 0 652 652;" xml:space="preserve">
<style type="text/css">
	.st0{fill:#C5552B;}
</style>
    <g>
	<g>
		<rect x="20.4" y="326.4" width="600" height="2.4"/>
        <path class="st0" d="M34,383.1c24.2,0,24.2,0,24.2,0c2.9,0,4.9-0.7,4.9-3.2c0-3-2-3.7-4.9-3.7c-24.2,0-24.2,0-24.2,0
			C34,383.1,34,383.1,34,383.1L34,383.1z M34,367.1c23.9,0,23.9,0,23.9,0c2.5,0,4-0.9,4-3.4c0-2.6-1.5-3.5-4-3.5
			c-23.9,0-23.9,0-23.9,0C34,367.1,34,367.1,34,367.1L34,367.1z M20.5,349.6c38.9,0,38.9,0,38.9,0c10.8,0,16,2.9,16,11.6
			c0,7.5-2.7,9-6.5,10.1c0,0.2,0,0.2,0,0.2c5.9,0.7,8.1,3.9,8.1,10.5c0,9.7-5.7,11.7-13.4,11.7c-43,0-43,0-43,0
			C20.5,349.6,20.5,349.6,20.5,349.6L20.5,349.6z"/>
        <polygon class="st0" points="91.1,349.6 139.2,349.6 139.2,359.8 104.6,359.8 104.6,366.9 137.4,366.9 137.4,376 104.6,376
			104.6,383.1 140,383.1 140,393.7 91.1,393.7 		"/>
        <path class="st0" d="M167.6,371.3c22.3,0,22.3,0,22.3,0c3.7,0,5-1.5,5-4.6c0-1.5,0-1.5,0-1.5c0-3.9-1.9-4.6-6.2-4.6
			c-21.1,0-21.1,0-21.1,0C167.6,371.3,167.6,371.3,167.6,371.3L167.6,371.3z M154.1,349.6c40.7,0,40.7,0,40.7,0
			c10.4,0,13.2,5.2,13.2,13.1c0,2.8,0,2.8,0,2.8c0,5.9-1.3,9.4-7.5,10.8c0,0.1,0,0.1,0,0.1c4,0.7,7.4,2.5,7.4,9.7c0,7.5,0,7.5,0,7.5
			c-13.5,0-13.5,0-13.5,0c0-5.3,0-5.3,0-5.3c0-4.6-1.3-6.1-5.5-6.1c-21.2,0-21.2,0-21.2,0c0,11.4,0,11.4,0,11.4
			c-13.5,0-13.5,0-13.5,0C154.1,349.6,154.1,349.6,154.1,349.6L154.1,349.6z"/>
        <polygon class="st0" points="223.2,349.6 271.3,349.6 271.3,359.8 236.7,359.8 236.7,366.9 269.5,366.9 269.5,376 236.7,376
			236.7,383.1 272.1,383.1 272.1,393.7 223.2,393.7 		"/>
        <polygon class="st0" points="286.3,349.6 307.2,349.6 332.5,381.6 332.7,381.6 332.7,349.6 346.2,349.6 346.2,393.7 325.2,393.7
			299.9,361.7 299.8,361.7 299.8,393.7 286.3,393.7 		"/>
        <path class="st0" d="M374.8,383.1c24.2,0,24.2,0,24.2,0c2.9,0,4.9-0.7,4.9-3.2c0-3-1.9-3.7-4.9-3.7c-24.2,0-24.2,0-24.2,0
			C374.8,383.1,374.8,383.1,374.8,383.1L374.8,383.1z M374.8,367.1c23.9,0,23.9,0,23.9,0c2.5,0,4-0.9,4-3.4c0-2.6-1.5-3.5-4-3.5
			c-23.9,0-23.9,0-23.9,0C374.8,367.1,374.8,367.1,374.8,367.1L374.8,367.1z M361.2,349.6c38.9,0,38.9,0,38.9,0
			c10.8,0,16,2.9,16,11.6c0,7.5-2.7,9-6.5,10.1c0,0.2,0,0.2,0,0.2c5.9,0.7,8.1,3.9,8.1,10.5c0,9.7-5.7,11.7-13.4,11.7
			c-43,0-43,0-43,0C361.2,349.6,361.2,349.6,361.2,349.6L361.2,349.6z"/>
        <polygon class="st0" points="431.8,349.6 480,349.6 480,359.8 445.3,359.8 445.3,366.9 478.2,366.9 478.2,376 445.3,376
			445.3,383.1 480.8,383.1 480.8,393.7 431.8,393.7 		"/>
        <path class="st0" d="M508.4,371.3c22.3,0,22.3,0,22.3,0c3.7,0,5-1.5,5-4.6c0-1.5,0-1.5,0-1.5c0-3.9-1.9-4.6-6.2-4.6
			c-21.1,0-21.1,0-21.1,0C508.4,371.3,508.4,371.3,508.4,371.3L508.4,371.3z M494.9,349.6c40.8,0,40.8,0,40.8,0
			c10.4,0,13.2,5.2,13.2,13.1c0,2.8,0,2.8,0,2.8c0,5.9-1.3,9.4-7.5,10.8c0,0.1,0,0.1,0,0.1c4,0.7,7.4,2.5,7.4,9.7c0,7.5,0,7.5,0,7.5
			c-13.5,0-13.5,0-13.5,0c0-5.3,0-5.3,0-5.3c0-4.6-1.3-6.1-5.5-6.1c-21.2,0-21.2,0-21.2,0c0,11.4,0,11.4,0,11.4
			c-13.5,0-13.5,0-13.5,0C494.9,349.6,494.9,349.6,494.9,349.6L494.9,349.6z"/>
        <path class="st0" d="M563,365.1c0-12.9,7.2-15.9,19.4-15.9c20.3,0,20.3,0,20.3,0c15.3,0,17.5,5.5,17.5,14.1c0,1.4,0,1.4,0,1.4
			c-13.3,0-13.3,0-13.3,0c0-4.4-2.5-4.9-6.8-4.9c-14.7,0-14.7,0-14.7,0c-6.8,0-8.6,1.6-8.6,9.2c0,5.5,0,5.5,0,5.5
			c0,7.5,1.8,9.2,8.6,9.2c14.4,0,14.4,0,14.4,0c3.5,0,7.1-0.5,7.1-4.8c0-1.3,0-1.3,0-1.3c-16.8,0-16.8,0-16.8,0c0-9.1,0-9.1,0-9.1
			c30.3,0,30.3,0,30.3,0c0,12.5,0,12.5,0,12.5c0,12.6-6.6,13.3-21.8,13.3c-16.3,0-16.3,0-16.3,0c-12.2,0-19.4-3-19.4-15.9
			C563,365.1,563,365.1,563,365.1L563,365.1z"/>
        <polygon points="329.4,259.9 325.6,256.7 325.6,261.1 329.4,264.3 		"/>
        <path d="M335,262.1c0.1-3-3.8-8.4-3.8-8.4c0,5.2,0,5.2,0,5.2S333.8,260.8,335,262.1L335,262.1z"/>
        <path d="M329.4,258.1c0,0,0-4.6,0-6.6c-4.4,1.2-3.8,3.4-3.8,3.4C329.4,258.1,329.4,258.1,329.4,258.1L329.4,258.1z"/>
        <path d="M323.9,256.3c0,0-0.3-0.4-0.6-0.6c-1-0.8-3.2,0.9-3.2,0.9c3.8,3.2,3.8,3.2,3.8,3.2C323.9,256.3,323.9,256.3,323.9,256.3
			L323.9,256.3z"/>
        <path d="M335.4,264.2c-2.8-2.1-4.3-3.1-4.3-3.1c0,3,0,3,0,3s2.3,1.1,3.9,2.6C336,266.6,336,265.9,335.4,264.2L335.4,264.2z"/>
        <path d="M325.6,267.7c0,1.3,3.5,3.6,3.5,3c0-0.6,0-4.4,0-4.4c-3.5-3-3.5-3-3.5-3S325.6,266.3,325.6,267.7L325.6,267.7z"/>
        <polygon points="323.9,262.5 320.7,259.9 323.9,266.9 		"/>
        <path d="M330,284C329.9,284.1,329.9,284.1,330,284c-0.1,0.2-0.3,1,0.3,1.8c0.5,0.7,1.5,1.1,2.9,1.2c0.1,0,0.1,0,0.1,0
			c0.1,0.1,0.3,0.3,0.4,1c-3.6,0-3.6,0-3.6,0c-0.1,0-0.1,0-0.1,0c-0.1,0.1-1.4,0.7-2.4,3.1c0,0.1,0,0.1,0,0.1
			c-0.3,1.1-0.9,2.1-1.2,2.2c-0.2,0-0.4,0.1-0.5,0.2c-0.3-1-0.5-2.3-0.2-3.3c0.7-1,0.7-1.2,0.5-1.5c-0.2-0.3-0.2-0.3-0.2-0.3
			c-0.4,0-0.4,0-0.4,0c-0.3,0-0.5,0.2-0.6,0.3c-0.2,0.3-0.4,0.6-0.6,1c-0.9,1.3-1.6,1.8-1.9,1.9c-0.3,0-1.1,0.1-1.8,0.4
			c0.3-1.2,1-3.1,1.5-3.7c0.3-0.3,0.4-0.4,0.6-0.5c0.4,0,0.4,0,0.4,0c0.3,0,0.5,0,0.7-0.1c0,0,0,0,0,0c0.5-0.1,0.7-0.2,0.7-0.7
			c0-0.2-0.2-0.6-0.7-0.6c0,0-0.1,0-0.2,0c-0.5,0-0.8,0-1.1,0.1l0,0c-0.6,0-1.3,0.1-1.8,0.1c0.4-0.5,0.8-1,1-1.2
			c0.2-0.2,1.3-0.3,2-0.4c1.3-0.2,2.1-0.3,2.6-0.6c0.4-0.2,4-2.5,5.3-11.5c0.6-0.1,1.5-0.3,3.2,0C330,284,330,284,330,284L330,284z
			 M331.7,266.7c-0.8-0.3-0.8-0.3-0.8-0.3c0,0.9,0,0.9,0,0.9c-0.2,13.3-5,16-5,16c0,0,0,0,0,0c-0.3,0.2-1.3,0.3-2.1,0.4
			c-1.3,0.2-2.1,0.3-2.5,0.6c-0.8,0.5-1.9,2.3-2.1,2.7c-0.7,1.1-0.7,1.1-0.7,1.1c1.3-0.2,1.3-0.2,1.3-0.2c0.3,0,0.8-0.1,1.3-0.1
			c-0.8,1.3-1.9,4.3-1.6,5.2c0.3,0.7,0.3,0.7,0.3,0.7c0.7-0.4,0.7-0.4,0.7-0.4c0.6-0.3,1.8-0.6,2.1-0.6c0,0,0,0,0,0
			c0.1,0,0.1,0,0.1,0c0.5,0,1.1-0.4,1.6-0.9c0.1,1.7,0.8,3.1,0.8,3.2c0.8,1.8,0.8,1.8,0.8,1.8c0.4-1.9,0.4-1.9,0.4-1.9
			c0,0,0.1-0.4,0.3-0.4c1.3-0.2,2-2.3,2.2-3c0.7-1.6,1.4-2.2,1.6-2.4c4.8,0,4.8,0,4.8,0c-0.1-0.7-0.1-0.7-0.1-0.7
			c-0.2-2.3-1-2.8-1.7-2.8c-0.1,0-0.1,0-0.1,0c-1.2-0.1-1.7-0.4-1.9-0.6c-0.2-0.3-0.2-0.5-0.2-0.6c5.2-11.9,5.2-11.9,5.2-11.9
			c0-0.1,0-0.1,0-0.1C337.6,268.8,331.9,266.8,331.7,266.7L331.7,266.7z"/>
        <path d="M311.9,284.7c1.9-9.9,0.5-11.6,0.5-11.6s0.9-6.3,0-10.5c-0.4-2.2,0-7.7,0-7.7s-0.3-0.4-0.9,0.3c-2.7-0.7-5.7,0.9-6.8,1.1
			c-0.7,0.1-1.5,0.3-2,0.2c-0.1,0.3-0.6,1.3,0.7,1.8c1.5,0.6,1.8,0.7,1.8,0.7c-1.3,1.6-1.3,1.6-1.3,1.6s0.2,0.6,0.9,0.6
			c0.6,0,1,0.4,0.3,1.6c-1,1.6-2.9,2.4-2.9,2.4s-1.9,0.6-2.6,0.4c-0.4,0.2-0.6,0-0.6,0c0-1.6,0-1.6,0-1.6c2.6,0,2.6,0,2.6,0
			c-2-4.7-2-4.7-2-4.7c1.3,0,1.3,0,1.3,0c-1.7-4.1-1.7-4.1-1.7-4.1c1,0,1,0,1,0c-2.5-5.1-2.5-5.1-2.5-5.1c-3,5.1-3,5.1-3,5.1
			c1.5,0,1.5,0,1.5,0c-1.7,4.1-1.7,4.1-1.7,4.1c1.3,0,1.3,0,1.3,0c-2.3,4.7-2.3,4.7-2.3,4.7c3.3,0,3.3,0,3.3,0
			c0.5,1.6-0.9,2.3-0.9,2.8c-0.2,0.9,0.9,1.6,0.9,1.6s0.1,2.6-0.1,3.3c-0.2,0.7-1.2,0.8-1.2,0.8s0.1,1.3,1.3,1.6c0,0.9,0,2.9,0,2.9
			c-0.9,0.9-0.9,0.9-0.9,0.9c1,0.9,1,0.9,1,0.9c-0.6,0.8-0.6,0.8-0.6,0.8c1.4,1.2,1.4,1.2,1.4,1.2c1.3-1.2,1.3-1.2,1.3-1.2
			c-0.5-0.8-0.5-0.8-0.5-0.8c0.9-0.9,0.9-0.9,0.9-0.9c-0.9-0.9-0.9-0.9-0.9-0.9s0-1.8,0-2.3c0-0.5,3.8-1.6,3.8-1.6s2.4,2.1,1.7,4.2
			c-0.5,1.6-3.8,5.1-3.8,5.1c-2.4,3.5-0.6,4.5-0.1,5.8c0.4,1-0.6,2-1.5,2.6c-1.6,1.1-1.6,2.4-1.6,2.4c2.8,0,2.8,0,2.8,0
			c3.4,0,3.4,0,3.4,0c0.5-1.9,0-4.7,0-4.7c0-3.8,3.2-4.1,3.2-4.1c0.6,1.1,0.9,1.7,1.4,2.5c1.2,1.8,1.4,3.4,1.4,3.4
			c-0.5,0.8-1.1,1.2-1.6,1.4c-1.8,0.7-1.2,1.4-1.2,1.4c0,0,2,0,2,0c6.1,0.3,5.2-2.5,5.2-2.5C311.2,288,311.9,284.7,311.9,284.7
			L311.9,284.7z"/>
        <polygon points="314.9,216.4 304.1,216.4 305.4,221.6 		"/>
        <path d="M316.2,207.8c-0.8,0-11.8,7.2-11.8,7.2c23.1,0,23.1,0,23.1,0c0,0-10.2-7.1-11.5-7.1C316.2,207.8,316.2,207.8,316.2,207.8z
			"/>
        <path d="M342.1,277.2c-1.1,0.4-1.8,1-2.3,1.6c-0.5-6.1,0-12.8,4.2-15c8.1-5.3,8.1-5.3,8.1-5.3c0.2,10.3,0.2,10.3,0.2,10.3
			C351.8,269.4,349.5,272.7,342.1,277.2L342.1,277.2z M349.2,283.3c-2.4,4.2-2.4,4.2-2.4,4.2c2.2,6.2,2.2,6.2,2.2,6.2
			c-1.6-0.5-4.6-1.7-7.4-3.8c-0.2-0.9-1.1-4.2-1.6-8.3c0-0.6,0.2-1.5,1-2.3C342,280.2,344.6,282.4,349.2,283.3L349.2,283.3z
			 M316.7,303.2c0-49.6,0-49.6,0-49.6c0,0,0,0,0,0c1.3-0.6,5-2.2,10.6-5.4c14.3,0.2,14.3,0.2,14.3,0.2c0.2,15.5,0.2,15.5,0.2,15.5
			c-3.8,3.8-3.7,11.7-2.9,17.9c0,0.3,0,0.5,0.1,0.7c0.4,3.1,1,5.7,1.3,7c0,0,0,0-0.1,0.1c0,0,0,0,0,0
			C340.1,289.7,329.5,303.2,316.7,303.2C316.7,303.2,316.7,303.2,316.7,303.2z M292.3,290c-0.5-0.7-0.5-0.7-0.5-0.7
			c1-4.2,4.3-19.7-1.5-25.4c0.2-15.5,0.2-15.5,0.2-15.5c14.3-0.2,14.3-0.2,14.3-0.2c6.1,3.4,9.8,5.1,10.7,5.5c0,49.6,0,49.6,0,49.6
			c-0.1,0-0.1,0-0.2,0C304,303.2,294.4,292.5,292.3,290L292.3,290z M285.2,287.5c-2.3-4.2-2.3-4.2-2.3-4.2c5.7-1.2,8.3-4.3,8.4-4.5
			c0.5-0.6,0.5-0.6,0.5-0.6c-0.6-0.4-0.6-0.4-0.6-0.4c-8.3-4.9-10.9-8.5-11.4-9.2c0.2-10.3,0.2-10.3,0.2-10.3c8,5.3,8,5.3,8,5.3
			c0,0,0,0,0,0c7.7,4.1,2.9,23.9,2.3,26.1c-2.9,2.1-5.9,3.3-7.4,3.8C285.2,287.5,285.2,287.5,285.2,287.5L285.2,287.5z M288,262.2
			c-5.1-3.4-5.1-3.4-5.1-3.4c2.4-2.6,4.2-2.9,5.2-2.8C288,262.2,288,262.2,288,262.2L288,262.2z M297.7,244c1.1,0.6,2.1,1.2,3,1.8
			c-12.5,0.2-12.5,0.2-12.5,0.2c-0.1,8.7-0.1,8.7-0.1,8.7c-1.3-0.1-3.5,0.4-6.3,3.4c-1.7-1.2-1.7-1.2-1.7-1.2
			c0.2-7.6,0.2-7.6,0.2-7.6C285.3,241.5,296.6,243.8,297.7,244L297.7,244z M282,235.9c0.6-0.8,2.1-2,3.2-2.8
			c8,5.1,17.6,3.2,20.6,2.4c0.5,2.1,0.5,2.1,0.5,2.1c-8.5,4.1-8.5,4.1-8.5,4.1c-8.1-0.3-8.1-0.3-8.1-0.3
			C287.6,240.8,282.6,238.7,282,235.9L282,235.9z M297.1,223c-2.4,3.1-2.4,3.1-2.4,3.1c1.3,3.7,1.3,3.7,1.3,3.7
			c-8.6-2.5-11.4,2-11.5,2.2c-0.1,0.1-0.1,0.1-0.1,0.1c-0.7,0.5-1.7,1.3-2.5,2c0-8.2,0-8.2,0-8.2C287.5,218.9,294.9,221.9,297.1,223
			L297.1,223z M316,218.9c11.3,6,11.3,6,11.3,6c0,0.2-0.1,0.4-0.2,0.7c-11.1-4.9-11.1-4.9-11.1-4.9c-11.3,5.2-11.3,5.2-11.3,5.2
			c-0.1-0.5-0.1-0.5-0.1-0.5C316,218.9,316,218.9,316,218.9L316,218.9z M334.3,236.6c3.9,0,8.5-0.8,12.7-3.4c1.1,0.8,2.6,2,3.2,2.8
			c-0.6,2.8-5.6,4.9-7.7,5.5c-8.1,0.3-8.1,0.3-8.1,0.3c-8.7-4.1-8.7-4.1-8.7-4.1c0.1-0.5,0.2-1.2,0.4-2.1
			C327.5,235.8,330.6,236.6,334.3,236.6L334.3,236.6z M336.3,230.2c1.3-3.7,1.3-3.7,1.3-3.7c-2.4-3.1-2.4-3.1-2.4-3.1
			c2.2-1.1,9.5-4.1,15,2.7c0,8,0,8,0,8c-0.9-0.9-2.1-1.7-2.8-2.2C346.5,230.8,343.4,228.1,336.3,230.2L336.3,230.2z M309.2,227.8
			c0.3,1.7,1.4,4.7,5.7,7.6c0-10.8,0-10.8,0-10.8c-0.4,0.1-0.4,0.1-0.4,0.1c0,0,0,0,0,0c-9.3,3-9.3,3-9.3,3
			c-0.2-0.6-0.2-0.6-0.2-0.6c11-5.1,11-5.1,11-5.1c10.7,4.8,10.7,4.8,10.7,4.8c-0.1,0.3-0.1,0.6-0.2,0.8c-3.7-1.2-3.7-1.2-3.7-1.2
			c0,0,0,0,0,0c-5.7-1.9-5.7-1.9-5.7-1.9c0,10.8,0,10.8,0,10.8c4.3-2.9,5.4-5.9,5.7-7.5c3.5,1.1,3.5,1.1,3.5,1.1
			c-0.8,3.3-1.7,7.4-1.9,8.9c-4.1,1.4-7.2,4.8-8.4,6.3c-1.2-1.5-4.4-4.9-8.4-6.3c-2.2-8.8-2.2-8.8-2.2-8.8
			C309.2,227.8,309.2,227.8,309.2,227.8L309.2,227.8z M316,252.5c-1.3-0.6-7.5-3.4-17.8-9.6c0,0,0,0,0,0c8.5-4.1,8.5-4.1,8.5-4.1
			c0.2,0.1,0.2,0.1,0.2,0.1c3.3,1,6.2,3.9,7.6,5.5c-1.3,1.3-1,4.9,1.6,4.9c2.6,0,2.9-3.7,1.3-4.9c1.4-1.6,4.2-4.5,7.7-5.5
			c0.2-0.1,0.2-0.1,0.2-0.1c8.5,4,8.5,4,8.5,4c0,0,0,0,0,0c-0.1,0-0.1,0-0.1,0C323.6,249.1,317.3,251.9,316,252.5L316,252.5z
			 M344.1,262.2C344,256,344,256,344,256c1-0.1,2.7,0.3,5.2,2.8C344.1,262.2,344.1,262.2,344.1,262.2L344.1,262.2z M351.8,249.3
			c0.2,7.6,0.2,7.6,0.2,7.6c-1.7,1.2-1.7,1.2-1.7,1.2c-2.7-2.9-4.9-3.5-6.3-3.4c-0.1-8.7-0.1-8.7-0.1-8.7
			c-12.5-0.2-12.5-0.2-12.5-0.2c1-0.6,2-1.2,3-1.8C335.5,243.8,346.7,241.4,351.8,249.3L351.8,249.3z M353.1,249.1
			c0-0.2,0-0.2,0-0.2c-0.1-0.2-0.1-0.2-0.1-0.2c-2.5-4-6.4-5.6-9.9-6.2c1.3-0.4,8.5-2.8,8.5-7.2c0-9.8,0-9.8,0-9.8
			c-0.1,0-0.1,0-0.1,0c0,0,0,0,0,0c-7.2-9.2-17.5-3-17.6-2.9c-0.6,0.4-0.6,0.4-0.6,0.4c2.8,3.7,2.8,3.7,2.8,3.7c-2,5.5-2,5.5-2,5.5
			c1.3-0.4,1.3-0.4,1.3-0.4c6.3-2.2,9.4-0.6,10.6,0.5c-7.8,4.7-17.3,2.6-19.7,2c0.6-2.9,1.5-6.7,2.2-9.6c0.1-0.5,0.1-0.5,0.1-0.5
			c-12.7-6.8-12.7-6.8-12.7-6.8c-12.9,7.4-12.9,7.4-12.9,7.4c2.4,9.5,2.4,9.5,2.4,9.5c-2.8,0.7-12,2.5-19.5-2.2
			c1-1,4.1-3.1,10.9-0.8c1.3,0.4,1.3,0.4,1.3,0.4c-2-5.5-2-5.5-2-5.5c2.8-3.6,2.8-3.6,2.8-3.6c-0.6-0.4-0.6-0.4-0.6-0.4
			c-0.1-0.1-10.4-6.3-17.6,2.9c-0.1,0.2-0.1,0.2-0.1,0.2c0,10,0,10,0,10c0,4.3,7,6.7,8.4,7.2c-3.6,0.6-7.5,2.2-10.1,6.2
			c-0.1,0.2-0.1,0.2-0.1,0.2c-0.5,20.1-0.5,20.1-0.5,20.1c0.1,0.2,0.1,0.2,0.1,0.2c0.1,0.2,2.2,3.9,11.2,9.4c-1.1,1-3.7,3-8,3.7
			c-0.9,0.1-0.9,0.1-0.9,0.1c2.9,5.2,2.9,5.2,2.9,5.2c-2.9,7.9-2.9,7.9-2.9,7.9c1.1-0.3,1.1-0.3,1.1-0.3c0.2,0,4.2-1,8.3-3.8
			c2.1,2.5,12.3,14.2,24.9,14.2c0.3,0,0.5,0,0.7,0c0.3,0,0.5,0,0.7,0c12.7,0,22.9-11.7,24.9-14.2c4.2,2.8,8.1,3.7,8.3,3.8
			c1.1,0.3,1.1,0.3,1.1,0.3c-2.9-7.9-2.9-7.9-2.9-7.9c2.9-5.2,2.9-5.2,2.9-5.2c-0.9-0.1-0.9-0.1-0.9-0.1c-4.3-0.7-7-2.7-8-3.7
			c9-5.5,11.1-9.2,11.2-9.4c0.1-0.2,0.1-0.2,0.1-0.2C353.1,249.1,353.1,249.1,353.1,249.1L353.1,249.1z"/>
        <polygon points="326.5,221.6 327.8,216.4 317.1,216.4 		"/>
        <path d="M149.1,425c-0.9,0.7-1.8,1-3.6,1c-2.8,0-2.8,0-2.8,0c0,6.7,0,6.7,0,6.7c-2.4,0-2.4,0-2.4,0c0-17,0-17,0-17
			c4.5,0,4.5,0,4.5,0c2.2,0,3.1,0.2,4,0.8c1.5,0.9,2.2,2.4,2.2,4.1C151.2,422.5,150.6,423.8,149.1,425z M147.7,418.4
			c-0.6-0.6-1.4-0.8-2.8-0.8c-2.2,0-2.2,0-2.2,0c0,6.5,0,6.5,0,6.5c2.7,0,2.7,0,2.7,0c1.2,0,1.9-0.3,2.4-1c0.5-0.6,0.7-1.3,0.7-2.2
			C148.5,419.8,148.3,419,147.7,418.4z"/>
        <path d="M167.1,432.7c-1.5-4.8-1.5-4.8-1.5-4.8c-5.9,0-5.9,0-5.9,0c-1.5,4.8-1.5,4.8-1.5,4.8c-2.5,0-2.5,0-2.5,0
			c5.6-17,5.6-17,5.6-17c3,0,3,0,3,0c5.5,17,5.5,17,5.5,17C167.1,432.7,167.1,432.7,167.1,432.7z M162.7,418c-0.2,0-0.2,0-0.2,0
			c-0.2,1-2,7.1-2.3,7.9c4.8,0,4.8,0,4.8,0C164.7,425.1,163,419,162.7,418z"/>
        <path d="M184.1,432.7c-0.5-1-0.7-1.4-1.4-2.5c-1.3-2.2-1.7-2.9-2.9-4.2c-0.4-0.5-0.8-0.7-1.5-0.8c0,7.5,0,7.5,0,7.5
			c-2.4,0-2.4,0-2.4,0c0-17,0-17,0-17c4.8,0,4.8,0,4.8,0c2,0,3.2,0.5,4,1.2c0.8,0.7,1.5,1.8,1.5,3.5c0,2.6-1.7,4.8-4.5,4.7
			c0.8,0.6,1.2,1.2,1.5,1.6c0.4,0.5,0.9,1.2,1.4,2.1c0.7,1.2,2.1,3.4,2.5,3.9C184.1,432.7,184.1,432.7,184.1,432.7z M182.1,417.9
			c-0.5-0.2-1.2-0.3-2.1-0.3c-1.8,0-1.8,0-1.8,0c0,5.9,0,5.9,0,5.9c1.7,0,1.7,0,1.7,0c1.5,0,2.4-0.3,2.9-0.8
			c0.5-0.5,0.8-1.3,0.8-2.3C183.7,419.2,183.1,418.3,182.1,417.9z"/>
        <polygon
                points="203.3,417.6 198.8,417.6 198.8,432.7 196.5,432.7 196.5,417.6 192.1,417.6 192.1,415.7 203.5,415.7 		"/>
        <path d="M218,432.7c-4.5-9-4.5-9-4.5-9c-0.9-1.8-1.8-3.7-2.1-4.7c-0.2,0-0.2,0-0.2,0c0.1,1.5,0.2,3.2,0.2,4.7
			c0.1,8.9,0.1,8.9,0.1,8.9c-2.4,0-2.4,0-2.4,0c0-17,0-17,0-17c2.8,0,2.8,0,2.8,0c4.7,9.4,4.7,9.4,4.7,9.4c0.7,1.4,1.6,3.6,1.7,4.1
			c0.1,0,0.1,0,0.1,0c0-0.5-0.2-3.2-0.2-5.1c0-8.3,0-8.3,0-8.3c2.3,0,2.3,0,2.3,0c0,17,0,17,0,17C218,432.7,218,432.7,218,432.7z"/>
        <polygon points="228.8,432.7 228.8,415.7 238,415.7 237.7,417.6 231.1,417.6 231.1,422.8 236.6,422.8 236.6,424.8 231.2,424.8
			231.2,430.6 238.3,430.6 238.3,432.7 		"/>
        <path d="M253.4,432.7c-0.5-1-0.7-1.4-1.4-2.5c-1.3-2.2-1.7-2.9-2.9-4.2c-0.4-0.5-0.8-0.7-1.5-0.8c0,7.5,0,7.5,0,7.5
			c-2.4,0-2.4,0-2.4,0c0-17,0-17,0-17c4.8,0,4.8,0,4.8,0c2,0,3.2,0.5,4,1.2c0.8,0.7,1.5,1.8,1.5,3.5c0,2.6-1.7,4.8-4.5,4.7
			c0.8,0.6,1.2,1.2,1.5,1.6c0.3,0.5,0.9,1.2,1.4,2.1c0.7,1.2,2.1,3.4,2.5,3.9C253.4,432.7,253.4,432.7,253.4,432.7z M251.4,417.9
			c-0.5-0.2-1.2-0.3-2.1-0.3c-1.8,0-1.8,0-1.8,0c0,5.9,0,5.9,0,5.9c1.7,0,1.7,0,1.7,0c1.5,0,2.3-0.3,2.9-0.8
			c0.5-0.5,0.8-1.3,0.8-2.3C253,419.2,252.3,418.3,251.4,417.9z"/>
        <path d="M267.6,433c-1.9,0-3.8-0.5-5.5-1.5c0.9-1.8,0.9-1.8,0.9-1.8c1.5,0.9,2.9,1.4,4.6,1.4c2.2,0,3.7-1.1,3.7-3
			c0-1.4-0.9-2.4-2.8-2.9c-1.8-0.5-1.8-0.5-1.8-0.5c-2.6-0.7-4-2-4-4.4c0-2.9,2.3-4.9,5.6-4.9c1.9,0,3.7,0.6,5.2,1.6
			c-1.1,1.7-1.1,1.7-1.1,1.7c-1.6-1-2.6-1.3-4-1.3c-1.9,0-3.1,1-3.1,2.6c0,1.2,0.7,1.9,2.5,2.4c2,0.6,2,0.6,2,0.6
			c2.3,0.7,4.2,2.1,4.2,4.8C274,430.1,272,433,267.6,433z"/>
        <polygon points="290.2,432.7 290.2,424.6 283.7,424.6 283.7,432.7 281.4,432.7 281.4,415.7 283.7,415.7 283.7,422.6 290.2,422.6
			290.2,415.7 292.6,415.7 292.6,432.7 		"/>
        <rect x="300.9" y="415.7" width="2.4" height="17"/>
        <path d="M320.3,425c-0.9,0.7-1.8,1-3.6,1c-2.8,0-2.8,0-2.8,0c0,6.7,0,6.7,0,6.7c-2.4,0-2.4,0-2.4,0c0-17,0-17,0-17
			c4.5,0,4.5,0,4.5,0c2.2,0,3.1,0.2,4,0.8c1.5,0.9,2.3,2.4,2.3,4.1C322.4,422.5,321.8,423.8,320.3,425z M318.9,418.4
			c-0.6-0.6-1.4-0.8-2.8-0.8c-2.2,0-2.2,0-2.2,0c0,6.5,0,6.5,0,6.5c2.7,0,2.7,0,2.7,0c1.2,0,1.9-0.3,2.4-1c0.5-0.6,0.7-1.3,0.7-2.2
			C319.7,419.8,319.5,419,318.9,418.4z"/>
        <path d="M343.3,433c-2,0-3.8-0.5-5.5-1.5c0.9-1.8,0.9-1.8,0.9-1.8c1.5,0.9,2.9,1.4,4.6,1.4c2.2,0,3.7-1.1,3.7-3
			c0-1.4-0.9-2.4-2.8-2.9c-1.8-0.5-1.8-0.5-1.8-0.5c-2.6-0.7-4-2-4-4.4c0-2.9,2.3-4.9,5.6-4.9c1.9,0,3.7,0.6,5.2,1.6
			c-1.1,1.7-1.1,1.7-1.1,1.7c-1.6-1-2.6-1.3-4-1.3c-1.9,0-3.1,1-3.1,2.6c0,1.2,0.7,1.9,2.5,2.4c2,0.6,2,0.6,2,0.6
			c2.3,0.7,4.1,2.1,4.1,4.8C349.7,430.1,347.7,433,343.3,433z"/>
        <rect x="357.1" y="415.7" width="2.4" height="17"/>
        <path d="M376.5,432.7c-4.5-9-4.5-9-4.5-9c-0.9-1.8-1.8-3.7-2.1-4.7c-0.2,0-0.2,0-0.2,0c0.1,1.5,0.2,3.2,0.2,4.7
			c0.1,8.9,0.1,8.9,0.1,8.9c-2.4,0-2.4,0-2.4,0c0-17,0-17,0-17c2.8,0,2.8,0,2.8,0c4.7,9.4,4.7,9.4,4.7,9.4c0.7,1.4,1.6,3.6,1.7,4.1
			c0.1,0,0.1,0,0.1,0c0-0.5-0.2-3.2-0.2-5.1c0-8.3,0-8.3,0-8.3c2.3,0,2.3,0,2.3,0c0,17,0,17,0,17
			C376.5,432.7,376.5,432.7,376.5,432.7z"/>
        <path d="M393.7,432.9c-2.2,0-4-0.9-5.3-2.5c-1.2-1.6-1.9-3.6-1.9-6.1c0-2,0.4-3.7,1.1-5.1c1.3-2.4,3.5-3.9,6.1-3.9
			c1.6,0,3.1,0.5,4.2,1.3c-1.2,1.6-1.2,1.6-1.2,1.6c-0.9-0.7-1.9-1-3-1c-1.7,0-3,0.9-3.8,2.4c-0.6,1.1-0.8,2.5-0.8,4.6
			c0,1.9,0.2,3,0.6,4c0.8,1.9,2.4,2.8,4.2,2.8c1.3,0,2.2-0.4,3.1-1.1c1.2,1.6,1.2,1.6,1.2,1.6C397,432.4,395.5,432.9,393.7,432.9z"
        />
        <polygon points="405.5,432.7 405.5,415.7 414.7,415.7 414.4,417.6 407.9,417.6 407.9,422.8 413.4,422.8 413.4,424.8 407.9,424.8
			407.9,430.6 415,430.6 415,432.7 		"/>
        <path d="M432.9,432.7c0-1.8,0-1.8,0-1.8c2.8,0,2.8,0,2.8,0c0-11.7,0-11.7,0-11.7s-0.8,0.6-1.8,1.1c-0.8,0.4-2,0.9-2,0.9
			c-0.5-1.2-0.5-1.2-0.5-1.2c4.8-3.4,4.8-3.4,4.8-3.4c1.7,0,1.7,0,1.7,0c0,14.4,0,14.4,0,14.4c2.4,0,2.4,0,2.4,0c0,1.8,0,1.8,0,1.8
			C432.9,432.7,432.9,432.7,432.9,432.7z"/>
        <path d="M456.2,432.5c-1.1,0.6-2.7,1-4.1,1c-0.8,0-1.1,0-1.8-0.2c-0.4-1.7-0.4-1.7-0.4-1.7c0.8,0.3,1.2,0.4,1.9,0.4
			c2.9,0,5.1-1.9,5.1-4.3c0-2.1-1.5-3-3.4-3c-1.1,0-2.3,0.2-3.2,0.6c0.8-8.6,0.8-8.6,0.8-8.6c7.6,0,7.6,0,7.6,0
			c-0.4,1.9-0.4,1.9-0.4,1.9c-5.2,0-5.2,0-5.2,0c-0.4,4.4-0.4,4.4-0.4,4.4c0.4,0,1-0.1,1.6-0.1c2.9,0,5.1,1.7,5.1,4.7
			C459.3,429.6,458.1,431.6,456.2,432.5z"/>
        <path d="M474.3,430.4c-1.1,1.1-2.3,2-3.9,2.7c-1.2,0.5-1.7,0.7-2.8,0.9c-1.2-1.4-1.2-1.4-1.2-1.4c0.9-0.2,1.4-0.3,2.2-0.7
			c2.1-0.9,4.1-2.4,5.2-4.4c0.2-0.3,0.4-0.8,0.6-1.3c-0.9,0.6-1.8,0.8-2.8,0.8c-2.9,0-5-2.2-5-5.2c0-3.2,2.4-5.6,5.7-5.6
			c3.5,0,5.4,2.9,5.4,6.2C477.8,425.2,476.5,428.1,474.3,430.4z M472.3,417.9c-1.8,0-3,1.5-3,3.8c0,2.1,1.1,3.5,2.9,3.5
			c1.1,0,1.9-0.4,2.9-1.2c0.2-0.8,0.2-1.2,0.2-1.9C475.3,419.5,474.1,417.9,472.3,417.9z"/>
        <path d="M489.9,433c-4.3,0-5.7-5.2-5.7-8.6c0-4.6,2.5-8.3,5.7-8.3c4.3,0,5.7,4.9,5.7,8.4C495.7,429.6,493.3,433,489.9,433z
			 M492.7,420.6c-0.5-1.8-1.5-2.7-2.7-2.7c-1,0-1.8,0.8-2.4,2.1c-0.5,1.1-0.7,2.5-0.7,4.4c0,1.7,0.2,3.1,0.4,4.1
			c0.5,1.8,1.6,2.8,2.7,2.8c1.1,0,2-0.9,2.6-2.3c0.4-1.1,0.6-2.6,0.6-4.4C493.1,422.9,493,421.8,492.7,420.6z"/>
	</g>
</g>
</svg>
