<svg id="Gruppe_66" data-name="Gruppe 66" xmlns="http://www.w3.org/2000/svg" width="260" height="98.8" viewBox="0 0 260 98.8">
  <path id="Pfad_223" data-name="Pfad 223" d="M280.924,83.263h4.181v5.21a15.929,15.929,0,0,1-3.421.4,6.125,6.125,0,0,1-4.863-1.928,8.309,8.309,0,0,1-1.69-5.634,7.869,7.869,0,0,1,1.875-5.555,6.606,6.606,0,0,1,5.105-2.033,11.628,11.628,0,0,1,4.911,1.134l1.159-2.75a15,15,0,0,0-5.988-1.216,10.517,10.517,0,0,0-7.712,2.757,10.224,10.224,0,0,0-2.8,7.635q0,4.95,2.482,7.664a9.089,9.089,0,0,0,7.064,2.715,24.833,24.833,0,0,0,3.621-.248,21.571,21.571,0,0,0,3.5-.844V80.429h-7.422Zm-13.349-12.08h-3.021V81.77q0,1.12.084,3.117t.11,2.315h-.083l-9.893-16.018h-4V91.39h2.992v-10.5q0-2.13-.193-4.7l-.068-.9h.11l9.919,16.1h4.041Zm-21.859,0h-3.3V91.39h3.3Zm-12.294,2.834h5.933V71.183H224.192v2.834h5.933V91.39h3.3ZM225.946,91.39V88.556h-8.541V71.183h-3.3V91.39ZM205.877,71.183V83.94q0,4.906-4.663,4.905a4.77,4.77,0,0,1-3.559-1.187,5.117,5.117,0,0,1-1.158-3.691V71.183h-3.311V84.2a7.206,7.206,0,0,0,2.082,5.472,8.1,8.1,0,0,0,5.835,1.99,9.616,9.616,0,0,0,4.338-.9,6.387,6.387,0,0,0,2.774-2.585,7.772,7.772,0,0,0,.959-3.918V71.183ZM189.244,83.526a5.065,5.065,0,0,0-1.519-1.811,14.989,14.989,0,0,0-3.254-1.728,18.233,18.233,0,0,1-2.732-1.313,3.346,3.346,0,0,1-1.09-1.057,2.585,2.585,0,0,1-.332-1.346,2.292,2.292,0,0,1,.827-1.845,3.677,3.677,0,0,1,2.429-.7,12.578,12.578,0,0,1,4.8,1.134l1.047-2.695a14.116,14.116,0,0,0-5.766-1.271,7.437,7.437,0,0,0-4.815,1.451,4.846,4.846,0,0,0-1.792,3.981,5.414,5.414,0,0,0,1.13,3.454,9.331,9.331,0,0,0,3.891,2.557A12.887,12.887,0,0,1,185.6,84.2a2.514,2.514,0,0,1,.857,1.921,2.442,2.442,0,0,1-.932,2.005,4.593,4.593,0,0,1-2.889.747,12.373,12.373,0,0,1-2.891-.374,15.242,15.242,0,0,1-2.931-1.022V90.6a12.777,12.777,0,0,0,5.6,1.064,8.454,8.454,0,0,0,5.368-1.534,5.091,5.091,0,0,0,1.945-4.228,5.466,5.466,0,0,0-.482-2.377m-16.45-12.342h-3.021V81.77q0,1.12.083,3.117t.11,2.315h-.083l-9.891-16.018h-4V91.39h2.994v-10.5q0-2.13-.193-4.7l-.07-.9h.11l9.919,16.1h4.043Zm-34.812,4.436a5.351,5.351,0,0,1,4.478-1.921,5.239,5.239,0,0,1,4.421,1.921,9.112,9.112,0,0,1,1.482,5.639,9.1,9.1,0,0,1-1.5,5.681,6.114,6.114,0,0,1-8.892-.022,9.063,9.063,0,0,1-1.5-5.659,8.989,8.989,0,0,1,1.51-5.639m11.43-2.031a8.883,8.883,0,0,0-6.953-2.722,9.067,9.067,0,0,0-7.03,2.68q-2.463,2.683-2.462,7.684t2.449,7.719a10.337,10.337,0,0,0,13.988-.02q2.463-2.738,2.464-7.672t-2.456-7.67m-21.555.5a17.949,17.949,0,0,1,2.157.849l1.187-2.75a12.679,12.679,0,0,0-5.711-1.3,10.062,10.062,0,0,0-5.118,1.257,8.233,8.233,0,0,0-3.331,3.621,12.439,12.439,0,0,0-1.152,5.514q0,5.005,2.372,7.692a8.59,8.59,0,0,0,6.8,2.687,15.138,15.138,0,0,0,5.38-.9V87.934c-.866.268-1.7.486-2.5.657a11.865,11.865,0,0,1-2.482.255,5.528,5.528,0,0,1-4.533-1.906,8.7,8.7,0,0,1-1.565-5.626,8.647,8.647,0,0,1,1.627-5.569,5.434,5.434,0,0,1,4.471-2.018,7.779,7.779,0,0,1,2.394.367m-21.6,14.463H95.768l10.209-15.05V71.183H92.1v2.834h9.891L91.823,89.095V91.39h14.432ZM83.83,74.018h5.933V71.183H74.6v2.834h5.931V91.39h3.3ZM71.552,71.183h-3.3V91.39h3.3ZM54.666,73.948h2.291a5.246,5.246,0,0,1,3.311.857,3.137,3.137,0,0,1,1.062,2.6,3.223,3.223,0,0,1-1.187,2.765,6.262,6.262,0,0,1-3.726.884H54.666Zm8.174-1.216q-1.882-1.549-5.663-1.548H51.369V91.39h3.3V83.83h2.1a9.117,9.117,0,0,0,5.892-1.686,5.9,5.9,0,0,0,2.069-4.852,5.556,5.556,0,0,0-1.884-4.56m-29.48,2.887A5.351,5.351,0,0,1,37.838,73.7a5.239,5.239,0,0,1,4.421,1.921,9.112,9.112,0,0,1,1.482,5.639,9.091,9.091,0,0,1-1.5,5.681,5.291,5.291,0,0,1-4.434,1.906,5.3,5.3,0,0,1-4.456-1.928,9.063,9.063,0,0,1-1.5-5.659,8.989,8.989,0,0,1,1.51-5.639m11.43-2.031a8.883,8.883,0,0,0-6.953-2.722,9.067,9.067,0,0,0-7.03,2.68q-2.463,2.683-2.462,7.684T30.8,88.95q2.446,2.716,7.015,2.715a8.9,8.9,0,0,0,6.973-2.735q2.463-2.738,2.464-7.672t-2.456-7.67" transform="translate(-28.347 7.135)" fill="#fff"/>
  <path id="Pfad_224" data-name="Pfad 224" d="M116.658,37.538l30.478,53.208-60.957,0Zm38.349,57.756L116.658,28.346,78.307,95.3Z" transform="translate(13.342 -28.346)" fill="#fff"/>
  <path id="Pfad_225" data-name="Pfad 225" d="M104.9,76.969a31.707,31.707,0,0,1,8.93-20.239l-2.346-4.1A36.275,36.275,0,0,0,100.3,76.969Zm31.752-29.9V42.52a36.212,36.212,0,0,0-18.33,4.957l2.273,3.97a31.653,31.653,0,0,1,16.057-4.377" transform="translate(31.697 -16.519)" fill="#fff"/>
  <path id="Pfad_226" data-name="Pfad 226" d="M113.345,53.017l-2.308-4.03A44.7,44.7,0,0,0,95.7,80.814h4.548a40.16,40.16,0,0,1,13.1-27.8m27.15-10.554V37.914a44.621,44.621,0,0,0-22.529,6.076l2.26,3.948a40.1,40.1,0,0,1,20.269-5.474" transform="translate(27.855 -20.362)" fill="#fff"/>
  <path id="Pfad_227" data-name="Pfad 227" d="M112.9,49.38l-2.3-4.019a53.167,53.167,0,0,0-19.507,39.3h4.549A48.613,48.613,0,0,1,112.9,49.38m31.435-11.522V33.308A53.03,53.03,0,0,0,117.61,40.5l2.26,3.948a48.5,48.5,0,0,1,24.468-6.591" transform="translate(24.011 -24.205)" fill="#fff"/>
</svg>
